<mxfile host="app.diagrams.net" modified="2020-05-12T11:07:16.877Z" agent="5.0 (Windows)" etag="XVvrD_cdoT9R14ZTkzej" version="13.0.3" type="github">
  <diagram id="AzihkOkHEE6bgdJXUsL3" name="Page-1">
    <mxGraphModel dx="1422" dy="842" grid="1" gridSize="10" guides="1" tooltips="1" connect="1" arrows="1" fold="1" page="1" pageScale="1" pageWidth="827" pageHeight="1169" math="0" shadow="0">
      <root>
        <mxCell id="0" />
        <mxCell id="1" parent="0" />
        <mxCell id="QmGi6Z0HYi6i0dTe3OUJ-1" value="RAC" style="shape=umlLifeline;perimeter=lifelinePerimeter;whiteSpace=wrap;html=1;container=1;collapsible=0;recursiveResize=0;outlineConnect=0;" parent="1" vertex="1">
          <mxGeometry x="140" y="200" width="120" height="740" as="geometry" />
        </mxCell>
        <mxCell id="LdvHdD_S3E-34ybEkYcV-18" value="" style="html=1;points=[];perimeter=orthogonalPerimeter;" vertex="1" parent="QmGi6Z0HYi6i0dTe3OUJ-1">
          <mxGeometry x="55" y="345" width="10" height="145" as="geometry" />
        </mxCell>
        <mxCell id="QmGi6Z0HYi6i0dTe3OUJ-22" value="Start to Switch" style="shape=note;whiteSpace=wrap;html=1;size=14;verticalAlign=top;align=left;spacingTop=-6;" parent="QmGi6Z0HYi6i0dTe3OUJ-1" vertex="1">
          <mxGeometry x="-10" y="397.5" width="130" height="40" as="geometry" />
        </mxCell>
        <mxCell id="QmGi6Z0HYi6i0dTe3OUJ-2" value="UPC" style="shape=umlLifeline;perimeter=lifelinePerimeter;whiteSpace=wrap;html=1;container=1;collapsible=0;recursiveResize=0;outlineConnect=0;" parent="1" vertex="1">
          <mxGeometry x="414" y="200" width="101" height="740" as="geometry" />
        </mxCell>
        <mxCell id="QmGi6Z0HYi6i0dTe3OUJ-12" value="" style="html=1;points=[];perimeter=orthogonalPerimeter;" parent="QmGi6Z0HYi6i0dTe3OUJ-2" vertex="1">
          <mxGeometry x="46" y="190" width="10" height="240" as="geometry" />
        </mxCell>
        <mxCell id="QmGi6Z0HYi6i0dTe3OUJ-13" value="per PUSCH per VoIP UE" style="edgeStyle=orthogonalEdgeStyle;html=1;align=left;spacingLeft=2;endArrow=block;rounded=0;entryX=1;entryY=0;" parent="QmGi6Z0HYi6i0dTe3OUJ-2" target="QmGi6Z0HYi6i0dTe3OUJ-12" edge="1">
          <mxGeometry relative="1" as="geometry">
            <mxPoint x="51" y="170" as="sourcePoint" />
            <Array as="points">
              <mxPoint x="76" y="170" />
            </Array>
          </mxGeometry>
        </mxCell>
        <mxCell id="QmGi6Z0HYi6i0dTe3OUJ-20" value="Decision to Switch" style="ellipse;whiteSpace=wrap;html=1;" parent="QmGi6Z0HYi6i0dTe3OUJ-2" vertex="1">
          <mxGeometry x="1" y="330" width="100" height="40" as="geometry" />
        </mxCell>
        <mxCell id="QmGi6Z0HYi6i0dTe3OUJ-6" value="&lt;font style=&quot;font-size: 15px&quot; color=&quot;#FF0000&quot;&gt;CellConfigReq&lt;/font&gt;&lt;font style=&quot;font-size: 15px&quot;&gt;&lt;font color=&quot;#FF0000&quot;&gt;()&lt;/font&gt;/&lt;font color=&quot;#0000CC&quot;&gt;CellReconfigReq&lt;/font&gt;()&lt;/font&gt;" style="html=1;verticalAlign=bottom;endArrow=block;" parent="1" source="QmGi6Z0HYi6i0dTe3OUJ-1" target="QmGi6Z0HYi6i0dTe3OUJ-2" edge="1">
          <mxGeometry width="80" relative="1" as="geometry">
            <mxPoint x="240" y="290" as="sourcePoint" />
            <mxPoint x="320" y="290" as="targetPoint" />
            <Array as="points">
              <mxPoint x="270" y="290" />
            </Array>
          </mxGeometry>
        </mxCell>
        <mxCell id="QmGi6Z0HYi6i0dTe3OUJ-8" value="&lt;div style=&quot;font-size: 15px&quot;&gt;&lt;font style=&quot;font-size: 15px&quot;&gt;Stor TTI Bundling&lt;/font&gt;&lt;/div&gt;&lt;div style=&quot;font-size: 15px&quot;&gt;&lt;font style=&quot;font-size: 15px&quot;&gt; parameters&lt;/font&gt;&lt;/div&gt;" style="shape=note;whiteSpace=wrap;html=1;size=14;verticalAlign=top;align=left;spacingTop=-6;" parent="1" vertex="1">
          <mxGeometry x="391" y="310" width="146" height="40" as="geometry" />
        </mxCell>
        <mxCell id="QmGi6Z0HYi6i0dTe3OUJ-9" value="&lt;font style=&quot;font-size: 15px&quot;&gt;Measure UL SINR&lt;/font&gt;" style="shape=note;whiteSpace=wrap;html=1;size=14;verticalAlign=top;align=left;spacingTop=-6;" parent="1" vertex="1">
          <mxGeometry x="400" y="411" width="146" height="40" as="geometry" />
        </mxCell>
        <mxCell id="QmGi6Z0HYi6i0dTe3OUJ-14" value="&lt;font style=&quot;font-size: 14px&quot;&gt;Check TTI Bundling Mode Switch Condition&lt;/font&gt;" style="shape=note;whiteSpace=wrap;html=1;size=14;verticalAlign=top;align=left;spacingTop=-6;" parent="1" vertex="1">
          <mxGeometry x="400" y="468" width="146" height="40" as="geometry" />
        </mxCell>
        <mxCell id="QmGi6Z0HYi6i0dTe3OUJ-15" value="Preamble" style="html=1;verticalAlign=bottom;endArrow=block;" parent="1" edge="1" target="LdvHdD_S3E-34ybEkYcV-13">
          <mxGeometry x="0.1111" width="80" relative="1" as="geometry">
            <mxPoint x="676" y="750" as="sourcePoint" />
            <mxPoint x="470" y="750" as="targetPoint" />
            <Array as="points">
              <mxPoint x="596" y="750" />
            </Array>
            <mxPoint as="offset" />
          </mxGeometry>
        </mxCell>
        <mxCell id="QmGi6Z0HYi6i0dTe3OUJ-16" value="UE" style="shape=umlLifeline;perimeter=lifelinePerimeter;whiteSpace=wrap;html=1;container=1;collapsible=0;recursiveResize=0;outlineConnect=0;" parent="1" vertex="1">
          <mxGeometry x="630" y="200" width="100" height="740" as="geometry" />
        </mxCell>
        <mxCell id="LdvHdD_S3E-34ybEkYcV-5" value="" style="html=1;points=[];perimeter=orthogonalPerimeter;" vertex="1" parent="QmGi6Z0HYi6i0dTe3OUJ-16">
          <mxGeometry x="45" y="530" width="10" height="160" as="geometry" />
        </mxCell>
        <mxCell id="LdvHdD_S3E-34ybEkYcV-6" value="&lt;div&gt;Random Access&lt;/div&gt;&lt;div&gt;for Intro-Cell HO&lt;/div&gt;" style="edgeStyle=orthogonalEdgeStyle;html=1;align=left;spacingLeft=2;endArrow=block;rounded=0;entryX=1;entryY=0;" edge="1" target="LdvHdD_S3E-34ybEkYcV-5" parent="QmGi6Z0HYi6i0dTe3OUJ-16">
          <mxGeometry relative="1" as="geometry">
            <mxPoint x="55" y="510" as="sourcePoint" />
            <Array as="points">
              <mxPoint x="80" y="510" />
            </Array>
          </mxGeometry>
        </mxCell>
        <mxCell id="LdvHdD_S3E-34ybEkYcV-22" value="" style="html=1;points=[];perimeter=orthogonalPerimeter;" vertex="1" parent="QmGi6Z0HYi6i0dTe3OUJ-16">
          <mxGeometry x="45" y="430" width="10" height="55" as="geometry" />
        </mxCell>
        <mxCell id="QmGi6Z0HYi6i0dTe3OUJ-21" value="&lt;div style=&quot;font-size: 14px&quot;&gt;&lt;font style=&quot;font-size: 14px&quot;&gt;RRCConnectionReconfiguration(mobilityControlInfo)&lt;/font&gt;&lt;/div&gt;" style="html=1;verticalAlign=bottom;endArrow=block;entryX=0.5;entryY=0.382;entryDx=0;entryDy=0;entryPerimeter=0;" parent="1" edge="1" target="LdvHdD_S3E-34ybEkYcV-22" source="LdvHdD_S3E-34ybEkYcV-18">
          <mxGeometry width="80" relative="1" as="geometry">
            <mxPoint x="200" y="671" as="sourcePoint" />
            <mxPoint x="670" y="681" as="targetPoint" />
          </mxGeometry>
        </mxCell>
        <mxCell id="LdvHdD_S3E-34ybEkYcV-11" value="RAR" style="html=1;verticalAlign=bottom;endArrow=block;" edge="1" parent="1" source="LdvHdD_S3E-34ybEkYcV-13">
          <mxGeometry x="-0.1557" width="80" relative="1" as="geometry">
            <mxPoint x="490" y="779" as="sourcePoint" />
            <mxPoint x="679.5" y="779" as="targetPoint" />
            <mxPoint as="offset" />
          </mxGeometry>
        </mxCell>
        <mxCell id="LdvHdD_S3E-34ybEkYcV-12" value="Msg3" style="html=1;verticalAlign=bottom;endArrow=block;" edge="1" parent="1" target="LdvHdD_S3E-34ybEkYcV-13">
          <mxGeometry x="0.1111" width="80" relative="1" as="geometry">
            <mxPoint x="674" y="811" as="sourcePoint" />
            <mxPoint x="500" y="811" as="targetPoint" />
            <Array as="points">
              <mxPoint x="594" y="811" />
            </Array>
            <mxPoint as="offset" />
          </mxGeometry>
        </mxCell>
        <mxCell id="LdvHdD_S3E-34ybEkYcV-14" value="Msg4" style="html=1;verticalAlign=bottom;endArrow=block;" edge="1" parent="1" source="LdvHdD_S3E-34ybEkYcV-13">
          <mxGeometry x="-0.1557" width="80" relative="1" as="geometry">
            <mxPoint x="490" y="840" as="sourcePoint" />
            <mxPoint x="670" y="840" as="targetPoint" />
            <mxPoint as="offset" />
          </mxGeometry>
        </mxCell>
        <mxCell id="LdvHdD_S3E-34ybEkYcV-16" value="&lt;font color=&quot;#FF3333&quot;&gt;Msg5 of new TTI bundling Mode&lt;/font&gt;" style="html=1;verticalAlign=bottom;endArrow=block;fontStyle=1" edge="1" parent="1" target="LdvHdD_S3E-34ybEkYcV-13">
          <mxGeometry x="0.0217" width="80" relative="1" as="geometry">
            <mxPoint x="674" y="870" as="sourcePoint" />
            <mxPoint x="490" y="870" as="targetPoint" />
            <Array as="points">
              <mxPoint x="594" y="870" />
            </Array>
            <mxPoint as="offset" />
          </mxGeometry>
        </mxCell>
        <mxCell id="LdvHdD_S3E-34ybEkYcV-13" value="eNB" style="html=1;points=[];perimeter=orthogonalPerimeter;" vertex="1" parent="1">
          <mxGeometry x="190" y="740" width="300" height="150" as="geometry" />
        </mxCell>
        <mxCell id="LdvHdD_S3E-34ybEkYcV-21" value="ReconfigUeInd(ttiBundlingModeChange)" style="html=1;verticalAlign=bottom;endArrow=block;" edge="1" parent="1" source="QmGi6Z0HYi6i0dTe3OUJ-2" target="LdvHdD_S3E-34ybEkYcV-18">
          <mxGeometry x="0.1111" width="80" relative="1" as="geometry">
            <mxPoint x="400" y="584" as="sourcePoint" />
            <mxPoint x="214" y="584" as="targetPoint" />
            <Array as="points">
              <mxPoint x="320" y="584" />
            </Array>
            <mxPoint as="offset" />
          </mxGeometry>
        </mxCell>
      </root>
    </mxGraphModel>
  </diagram>
</mxfile>
